<?xml version="1.0" encoding="UTF-8"?>
<svg version="1.1" xmlns="http://www.w3.org/2000/svg" width="2048" height="768">
<path d="M0 0 C675.84 0 1351.68 0 2048 0 C2048 253.44 2048 506.88 2048 768 C1372.16 768 696.32 768 0 768 C0 514.56 0 261.12 0 0 Z " fill="#010101" transform="translate(0,0)"/>
<path d="M0 0 C1.39365803 -0.01151247 2.78727221 -0.03195327 4.18066406 -0.06152344 C6.20171856 -0.10439211 8.22146611 -0.12039378 10.24291992 -0.13061523 C12.05240112 -0.15248901 12.05240112 -0.15248901 13.8984375 -0.17480469 C17.97978122 0.39143579 20.09782881 1.72923732 23.28588867 4.29516602 C25.39945968 7.46552252 25.53611944 8.21369405 25.53757095 11.83630657 C25.5453942 13.24124073 25.5453942 13.24124073 25.55337548 14.67455739 C25.54668332 16.22091279 25.54668332 16.22091279 25.53985596 17.79850769 C25.54297594 18.89234105 25.54609592 19.98617441 25.54931045 21.11315423 C25.55732099 24.79782086 25.55095461 28.48232418 25.54467773 32.16699219 C25.54738644 34.80154405 25.55087422 37.43608447 25.55529785 40.07063293 C25.56420732 46.49854645 25.56226183 52.92641335 25.55647257 59.35432871 C25.55195708 64.58486412 25.55134271 69.81538644 25.5535202 75.04592323 C25.55382667 75.79024473 25.55413313 76.53456623 25.55444889 77.30144292 C25.55508836 78.81365663 25.55573678 80.32587033 25.55639407 81.83808402 C25.56210322 96.03474304 25.55553298 110.23137628 25.54479334 124.42803106 C25.53588118 136.58419516 25.53738939 148.74032099 25.54663086 160.89648438 C25.55736448 175.02195039 25.5615287 189.14739368 25.55540633 203.27286321 C25.55476928 204.78351009 25.55414053 206.29415697 25.5535202 207.80480385 C25.55321165 208.54797726 25.5529031 209.29115068 25.5525852 210.0568445 C25.55086572 215.26866249 25.55375768 220.48046598 25.55847931 225.69228172 C25.56412362 232.06271513 25.56249884 238.43309934 25.55191782 244.8035272 C25.54670471 248.04801399 25.54562721 251.29240336 25.55121613 254.53689194 C25.57166028 267.61876671 25.42710443 280.36737498 23.28588867 293.29516602 C23.08424229 294.57569949 22.8825959 295.85623297 22.67483902 297.17557049 C16.70664081 333.35637747 -7.48658672 366.65782781 -36.52099609 388.07910156 C-43.51832377 393.05019885 -50.93943361 397.20265715 -58.54418945 401.16333008 C-60.58526746 402.22796078 -62.61095623 403.31760374 -64.63598633 404.41235352 C-128.17201929 438.13064644 -214.23437403 441.17192076 -282.45370483 420.60572815 C-297.66346343 415.921384 -312.45204642 410.3805976 -326.71411133 403.29516602 C-327.44871582 402.93600098 -328.18332031 402.57683594 -328.94018555 402.20678711 C-350.88427637 391.39734445 -387.30735218 370.10868432 -398.71411133 347.29516602 C-398.80521914 345.41597054 -398.83163969 343.53349809 -398.82763672 341.65209961 C-398.82756119 340.47102631 -398.82748566 339.289953 -398.82740784 338.0730896 C-398.82224655 336.79285919 -398.81708527 335.51262878 -398.81176758 334.19360352 C-398.80964516 332.23349838 -398.80964516 332.23349838 -398.80747986 330.23379517 C-398.80366027 326.75840344 -398.79383475 323.28305345 -398.78277588 319.80767822 C-398.77254976 316.26184656 -398.76797966 312.71600817 -398.76293945 309.17016602 C-398.75221199 302.21181553 -398.73514225 295.25349278 -398.71411133 288.29516602 C-397.39411133 287.96516602 -396.07411133 287.63516602 -394.71411133 287.29516602 C-394.04766602 288.2993457 -393.3812207 289.30352539 -392.69458008 290.33813477 C-386.54431551 299.50380937 -380.03448362 308.03935239 -372.71411133 316.29516602 C-371.91875977 317.20137695 -371.1234082 318.10758789 -370.30395508 319.04125977 C-331.57450176 362.68662997 -274.95234293 386.60245374 -217.31347656 391.09887695 C-209.4947584 391.52526571 -201.66777946 391.53995356 -193.83911133 391.54516602 C-192.47017227 391.54617813 -192.47017227 391.54617813 -191.07357788 391.54721069 C-177.40301717 391.53116807 -164.14455294 391.05491892 -150.71411133 388.29516602 C-149.81821289 388.11824219 -148.92231445 387.94131836 -147.99926758 387.7590332 C-134.96914089 385.1430681 -122.2584035 381.68091992 -109.71411133 377.29516602 C-109.07489746 377.07280273 -108.43568359 376.85043945 -107.77709961 376.62133789 C-76.62239762 365.54484528 -47.98076577 346.22980555 -32.83911133 316.10766602 C-31.77315264 313.84813386 -30.7292911 311.57796331 -29.71411133 309.29516602 C-29.31450195 308.40700195 -28.91489258 307.51883789 -28.50317383 306.60375977 C-19.85604809 285.31102533 -20.94285104 260.3461907 -29.71411133 239.29516602 C-48.11444555 198.38671295 -81.91293231 171.97700061 -123.15161133 156.10766602 C-139.43515071 150.02073088 -155.53130826 145.97254629 -172.71411133 143.29516602 C-173.46208984 143.17512207 -174.21006836 143.05507813 -174.98071289 142.93139648 C-198.37416682 139.30956732 -222.41657972 140.73786332 -245.71411133 144.29516602 C-247.36491699 144.54459961 -247.36491699 144.54459961 -249.04907227 144.79907227 C-273.76644643 148.6600448 -297.0566425 155.70293043 -319.71411133 166.29516602 C-320.78363037 166.78968262 -320.78363037 166.78968262 -321.87475586 167.29418945 C-350.50101617 180.64813992 -377.2039922 199.42065366 -395.71411133 225.29516602 C-396.145625 225.88910156 -396.57713867 226.48303711 -397.02172852 227.0949707 C-405.67071849 239.0977823 -412.32290261 251.8503555 -416.58911133 266.04516602 C-416.78029541 266.68115723 -416.97147949 267.31714844 -417.16845703 267.97241211 C-420.89214106 281.34927794 -420.99692258 294.55203306 -420.98850632 308.33279419 C-420.98753216 311.85543986 -421.00058373 315.37778785 -421.01748657 318.90039062 C-421.06352026 328.90582085 -421.08839603 338.9112153 -421.0949707 348.91674805 C-421.09997786 355.05914303 -421.12417116 361.20121889 -421.16029739 367.34350586 C-421.17009812 369.67828458 -421.17242588 372.01310712 -421.1671257 374.34790039 C-421.16007468 377.60280769 -421.17729234 380.85675573 -421.19995117 384.11157227 C-421.18769249 385.55476585 -421.18769249 385.55476585 -421.17518616 387.02711487 C-421.22691657 391.19652954 -421.38063061 393.69699379 -423.44070435 397.39219666 C-426.0803395 399.60171957 -427.20103507 399.92241839 -430.6027832 399.92626953 C-431.57058716 399.93880264 -432.53839111 399.95133575 -433.53552246 399.96424866 C-435.0934552 399.94436134 -435.0934552 399.94436134 -436.68286133 399.92407227 C-437.75532104 399.92648422 -438.82778076 399.92889618 -439.93273926 399.93138123 C-442.19893086 399.93040225 -444.46514623 399.91699684 -446.73120117 399.89208984 C-450.2015907 399.85778976 -453.66943356 399.87142748 -457.13989258 399.89086914 C-459.34172634 399.88397064 -461.54355353 399.87429822 -463.74536133 399.86157227 C-464.78398315 399.86653214 -465.82260498 399.871492 -466.8927002 399.87660217 C-467.86050415 399.86076584 -468.82830811 399.8449295 -469.82543945 399.82861328 C-471.09973816 399.81931541 -471.09973816 399.81931541 -472.39978027 399.80982971 C-475.56002767 399.10705013 -476.66879642 397.77083366 -478.71411133 395.29516602 C-479.22192001 392.91327286 -479.22192001 392.91327286 -479.23309326 390.22052002 C-479.24700607 389.19690872 -479.26091888 388.17329742 -479.2752533 387.1186676 C-479.27022293 386.00160934 -479.26519257 384.88455109 -479.26000977 383.73364258 C-479.27034744 382.55287643 -479.28068512 381.37211029 -479.29133606 380.15556335 C-479.31576835 376.92227801 -479.32260083 373.68952955 -479.32161617 370.45617008 C-479.32474548 367.07549029 -479.35036397 363.69498273 -479.37359619 360.31439209 C-479.41415859 353.91486229 -479.43449737 347.5154344 -479.44757009 341.11579585 C-479.4634394 333.82917234 -479.50185464 326.54272227 -479.54216337 319.25619936 C-479.62456546 304.2692457 -479.67865555 289.28230977 -479.71411133 274.29516602 C-481.62873169 274.28114746 -481.62873169 274.28114746 -483.58203125 274.2668457 C-488.32538535 274.22692262 -493.06809245 274.16115698 -497.81103516 274.08764648 C-499.86238279 274.05945038 -501.9138388 274.03822908 -503.96533203 274.02416992 C-506.91731187 274.00272178 -509.86799063 273.95606154 -512.81958008 273.90454102 C-513.73434616 273.90331238 -514.64911224 273.90208374 -515.59159851 273.90081787 C-520.89895406 273.77920023 -523.85451886 273.31951856 -527.71411133 269.29516602 C-527.23904102 265.01953322 -524.76108599 263.12956105 -521.71411133 260.29516602 C-520.99223633 259.53204102 -520.27036133 258.76891602 -519.52661133 257.98266602 C-517.71411133 256.29516602 -517.71411133 256.29516602 -515.71411133 256.29516602 C-515.50141602 255.74602539 -515.2887207 255.19688477 -515.06958008 254.63110352 C-513.24222866 251.48195035 -510.71834893 249.31233542 -508.02661133 246.92016602 C-506.84759415 245.85445828 -505.6692353 244.78802188 -504.49145508 243.72094727 C-503.87383301 243.16358887 -503.25621094 242.60623047 -502.61987305 242.03198242 C-500.04923347 239.68922942 -497.5250855 237.29900035 -494.99804688 234.90942383 C-488.4568939 228.73552576 -481.76540597 222.88590443 -474.71411133 217.29516602 C-473.58671174 216.3772415 -472.46047598 215.45788632 -471.33520508 214.53735352 C-461.74354677 206.72345946 -451.83995349 199.40089799 -441.71411133 192.29516602 C-441.09632813 191.85994629 -440.47854492 191.42472656 -439.84204102 190.97631836 C-416.74700376 174.81747781 -391.48426403 161.65069837 -365.96411133 149.79516602 C-364.90530762 149.30258301 -363.84650391 148.81 -362.75561523 148.30249023 C-356.175254 145.29060948 -349.53912066 142.69233038 -342.71411133 140.29516602 C-340.73141392 139.56982921 -338.74966724 138.8418892 -336.76879883 138.11157227 C-334.70898226 137.3600529 -332.64908581 136.60875243 -330.58911133 135.85766602 C-329.08864258 135.30369141 -329.08864258 135.30369141 -327.55786133 134.73852539 C-312.77263665 129.36631214 -297.79377721 125.41369793 -282.40161133 122.23266602 C-281.57884705 122.06119049 -280.75608276 121.88971497 -279.90838623 121.71304321 C-264.91526758 118.60137627 -249.93340406 116.04828522 -234.71411133 114.29516602 C-232.88879883 114.08102051 -232.88879883 114.08102051 -231.02661133 113.86254883 C-213.54777222 111.87021189 -196.19925 110.98517705 -178.61865234 110.63598633 C-164.60417599 110.35102058 -150.67823537 109.56146552 -136.71411133 108.29516602 C-135.60302002 108.20114502 -135.60302002 108.20114502 -134.46948242 108.10522461 C-92.70566418 104.41620857 -51.45967034 85.32563986 -24.13818359 53.27319336 C-21.00601884 48.83727982 -21.06273654 44.92392281 -21.18286133 39.63500977 C-21.17959839 38.72691055 -21.17633545 37.81881134 -21.17297363 36.88319397 C-21.16318021 33.99907732 -21.18469048 31.11663273 -21.21411133 28.23266602 C-21.25284669 24.42866341 -21.25904459 20.62664546 -21.24536133 16.82250977 C-21.27478821 15.52385231 -21.27478821 15.52385231 -21.30480957 14.19895935 C-21.2866557 9.96266433 -21.05182775 7.14936404 -18.3684082 3.76220703 C-13.15143929 -1.08671413 -6.76772778 0.03893609 0 0 Z " fill="#FBFBFB" transform="translate(616.714111328125,191.704833984375)"/>
<path d="M0 0 C1.87923585 1.5110072 3.73524456 3.05153004 5.5625 4.625 C6.36171875 5.31207031 7.1609375 5.99914062 7.984375 6.70703125 C22.05037999 19.77871519 31.67681893 39.45260974 32.5625 58.625 C32.65917969 60.419375 32.65917969 60.419375 32.7578125 62.25 C33.51913347 82.62102701 26.35257117 101.55403289 12.5625 116.625 C11.97210937 117.30691406 11.38171875 117.98882812 10.7734375 118.69140625 C-2.17608981 132.77057317 -22.30215951 141.47428435 -41.23779297 142.82470703 C-68.32047662 143.89759969 -90.03337983 137.86196834 -110.59375 119.72265625 C-122.51108877 108.51577421 -131.77122719 90.53021695 -132.56347656 73.99584961 C-132.64479332 70.8299001 -132.67249083 67.66693472 -132.6875 64.5 C-132.708125 63.43523437 -132.72875 62.37046875 -132.75 61.2734375 C-132.80775972 49.37493487 -129.85879126 39.15652482 -124.4375 28.625 C-123.94507813 27.65691406 -123.45265625 26.68882812 -122.9453125 25.69140625 C-112.01239436 5.57797551 -93.73460236 -7.34254042 -72.0625 -13.8125 C-47.75430285 -19.82226439 -20.2436074 -14.70163123 0 0 Z " fill="#FAFAFA" transform="translate(843.4375,324.375)"/>
<path d="M0 0 C1.16301888 -0.01475876 1.16301888 -0.01475876 2.34953308 -0.02981567 C18.86887618 -0.19634942 34.6005536 -0.12588248 50.64453125 4.23828125 C52.03671875 4.58439453 52.03671875 4.58439453 53.45703125 4.9375 C80.86080522 11.7523859 105.4685627 24.50208455 126.64453125 43.23828125 C127.16354004 43.69702637 127.68254883 44.15577148 128.21728516 44.62841797 C142.13139515 57.00059493 153.32210202 70.7546374 163.64453125 86.23828125 C163.26953125 88.42578125 163.26953125 88.42578125 162.64453125 90.23828125 C154.99500222 90.47114121 147.34584521 90.6482388 139.69356728 90.75640297 C136.13899206 90.80835173 132.58686018 90.87865389 129.03369141 90.99267578 C124.93760357 91.12328022 120.84403408 91.17083713 116.74609375 91.21484375 C114.85487289 91.29226303 114.85487289 91.29226303 112.92544556 91.37124634 C107.60462995 91.37459403 104.04816744 91.27126914 99.67723083 88.05453491 C97.17535654 85.55028256 94.91513919 82.95064204 92.64453125 80.23828125 C90.34687473 78.21051258 87.95047385 76.39246191 85.45703125 74.61328125 C84.82176514 74.15727539 84.18649902 73.70126953 83.53198242 73.23144531 C73.83953447 66.42344121 63.78902893 61.42184171 52.64453125 57.42578125 C51.87471924 57.14766602 51.10490723 56.86955078 50.31176758 56.58300781 C38.04103389 52.40497884 26.05611406 50.74768654 13.18286133 50.90209961 C11.07920056 50.92581316 8.97680911 50.92261049 6.87304688 50.91601562 C-6.24366427 50.93993395 -18.59769982 52.47797571 -31.04296875 56.73828125 C-32.06680664 57.08576416 -33.09064453 57.43324707 -34.14550781 57.79125977 C-53.61084488 64.64706154 -69.35361576 75.15759467 -84.35546875 89.23828125 C-84.94585937 89.75261719 -85.53625 90.26695312 -86.14453125 90.796875 C-102.78108217 105.97477098 -114.25448031 131.23001345 -117.6809082 153.19946289 C-119.41417037 164.07446206 -119.41417037 164.07446206 -122.4375 167.8125 C-124.99525227 169.60494057 -127.52372365 170.9269902 -130.35546875 172.23828125 C-132.05833943 173.27596807 -133.74553567 174.33971952 -135.41796875 175.42578125 C-136.78501953 176.28623047 -136.78501953 176.28623047 -138.1796875 177.1640625 C-142.09699734 179.72260066 -145.913984 182.40748545 -149.73046875 185.11328125 C-150.45596924 185.62552246 -151.18146973 186.13776367 -151.92895508 186.66552734 C-155.36310631 189.09518838 -158.77918708 191.54367458 -162.16015625 194.046875 C-162.74490723 194.47178223 -163.3296582 194.89668945 -163.93212891 195.33447266 C-165.50248958 196.47592828 -167.06219408 197.63200355 -168.62109375 198.7890625 C-171.35546875 200.23828125 -171.35546875 200.23828125 -174.08984375 200.09375 C-176.35546875 199.23828125 -176.35546875 199.23828125 -178.35546875 197.23828125 C-178.59350403 194.73141881 -178.70700884 192.33896931 -178.7265625 189.828125 C-178.73776627 189.07737701 -178.74897003 188.32662903 -178.76051331 187.5531311 C-178.78802946 185.09379026 -178.79415655 182.63527022 -178.79296875 180.17578125 C-178.79337158 179.33771942 -178.79377441 178.49965759 -178.79418945 177.63619995 C-178.68059861 136.68523248 -163.07344 99.08496209 -136.35546875 68.23828125 C-135.66066406 67.42101562 -134.96585938 66.60375 -134.25 65.76171875 C-101.8229109 28.55030503 -49.94130912 0.52363011 0 0 Z " fill="#FBFBFC" transform="translate(302.35546875,191.76171875)"/>
<path d="M0 0 C10.35382041 -0.04653616 20.70761555 -0.08197666 31.06151962 -0.10362434 C35.87031524 -0.11401913 40.6790388 -0.12809881 45.48779297 -0.15087891 C50.13677927 -0.17276193 54.78569666 -0.18460092 59.43473053 -0.18975449 C61.19995456 -0.19342269 62.96517523 -0.20058498 64.73036957 -0.21146011 C82.48621525 -0.3164061 100.83702696 0.84392597 115 13 C123.41764264 21.90835723 126.36556296 32.32189193 126.21875 44.37890625 C125.29522978 55.4446574 119.76955605 62.57490703 112 70 C111.34 70.66 110.68 71.32 110 72 C110.58007812 72.30292969 111.16015625 72.60585938 111.7578125 72.91796875 C122.33315885 78.58956539 128.87112705 84.88905279 132.88671875 96.58203125 C135.79559195 109.3521909 134.1986665 121.58962602 127.4921875 132.83984375 C119.03163589 145.08771034 106.06226872 149.77774101 92 153 C86.78065907 153.88630885 81.78254819 154.1434607 76.51025391 154.12939453 C75.28218018 154.13202301 75.28218018 154.13202301 74.02929688 154.13470459 C71.34503002 154.13907754 68.66082992 154.1362029 65.9765625 154.1328125 C64.1056619 154.13348646 62.23476139 154.13445725 60.36386108 154.13571167 C56.45529339 154.13718212 52.54674862 154.13505361 48.63818359 154.13037109 C43.61749275 154.12465044 38.59685509 154.12797163 33.57616615 154.13394356 C29.71930536 154.13754659 25.86245732 154.13641219 22.00559616 154.13381577 C20.15314096 154.13314701 18.30068461 154.13397315 16.44823074 154.13629532 C13.86991525 154.13882017 11.2916878 154.13498474 8.71337891 154.12939453 C7.55707474 154.13243088 7.55707474 154.13243088 6.37741089 154.13552856 C1.11426763 154.11426763 1.11426763 154.11426763 0 153 C-0.0966888 151.02571766 -0.12187075 149.04792169 -0.12025452 147.0712738 C-0.12162918 145.78253357 -0.12300385 144.49379333 -0.12442017 143.16600037 C-0.12088055 141.72451759 -0.11724573 140.28303505 -0.11352539 138.84155273 C-0.11324353 137.33403526 -0.11340123 135.82651764 -0.1139679 134.31900024 C-0.11425591 130.21380656 -0.10835861 126.10864185 -0.10139394 122.00345492 C-0.09516099 117.7179674 -0.09455665 113.43247928 -0.09336853 109.14698792 C-0.09025504 101.02613348 -0.08204141 92.90529244 -0.07201904 84.78444391 C-0.06085845 75.54155126 -0.05534759 66.29865798 -0.05032361 57.05576026 C-0.03985881 38.0371659 -0.02225903 19.01858403 0 0 Z " fill="#F8F7F8" transform="translate(1312,311)"/>
<path d="M0 0 C1.35448242 -0.01160156 1.35448242 -0.01160156 2.73632812 -0.0234375 C15.73906234 0.01422429 26.07905692 4.38504234 35.5625 13.25 C35.51029297 12.31027344 35.51029297 12.31027344 35.45703125 11.3515625 C35.42996094 10.53429687 35.40289063 9.71703125 35.375 8.875 C35.32279297 7.65683594 35.32279297 7.65683594 35.26953125 6.4140625 C35.36621094 5.69992187 35.46289062 4.98578125 35.5625 4.25 C39.03974971 1.93183353 40.40707543 2.00374251 44.5078125 2.01953125 C45.66667969 2.02146484 46.82554688 2.02339844 48.01953125 2.02539062 C49.83517578 2.04375977 49.83517578 2.04375977 51.6875 2.0625 C52.90566406 2.06314453 54.12382813 2.06378906 55.37890625 2.06445312 C64.42232143 2.10982143 64.42232143 2.10982143 65.5625 3.25 C65.6665219 4.62007123 65.70210459 5.99542166 65.70967102 7.36941528 C65.71682632 8.25784119 65.72398163 9.14626709 65.73135376 10.06161499 C65.73404266 11.0443338 65.73673157 12.02705261 65.73950195 13.03955078 C65.74607315 14.06898804 65.75264435 15.09842529 65.75941467 16.15905762 C65.77922245 19.58780993 65.79083375 23.01651805 65.80078125 26.4453125 C65.80485678 27.6171899 65.8089323 28.78906731 65.81313133 29.99645615 C65.834035 36.21231665 65.84831174 42.42815487 65.85766602 48.64404297 C65.868672 55.03801696 65.90299203 61.43163729 65.94283772 67.82548714 C65.96912609 72.7603719 65.97736922 77.69517453 65.98094749 82.63012314 C65.98579074 84.98459099 65.99733935 87.33905574 66.01598549 89.69345474 C66.16235833 109.41979175 64.9525294 129.26011098 50.5234375 144.4453125 C33.57528646 160.04301326 12.55258157 161.1925021 -9.36767578 160.43652344 C-21.59983452 159.69329381 -33.54369111 153.9416068 -43.42578125 146.81640625 C-44.4375 145.25 -44.4375 145.25 -44.4296875 143.015625 C-43.0635999 139.20779027 -40.94091476 136.2475805 -38.5625 133 C-38.11519531 132.36320313 -37.66789062 131.72640625 -37.20703125 131.0703125 C-33.82291667 126.37847222 -33.82291667 126.37847222 -30.4375 125.25 C-28.23828125 126.359375 -28.23828125 126.359375 -25.75 128 C-13.93199561 135.39268489 0.8642071 137.6782766 14.57421875 134.56640625 C23.57499669 131.24452649 28.57040232 126.219956 32.6171875 117.6171875 C34.43287786 113.07045875 34.80785044 108.89316467 35.125 104 C35.25068359 102.10507812 35.25068359 102.10507812 35.37890625 100.171875 C35.43949219 99.20765625 35.50007813 98.2434375 35.5625 97.25 C34.9025 97.25 34.2425 97.25 33.5625 97.25 C33.5625 97.91 33.5625 98.57 33.5625 99.25 C22.26648119 109.19833761 9.18956944 111.89216402 -5.4375 111.25 C-19.65036051 110.27239584 -31.88458192 103.7194342 -41.4375 93.25 C-43.72994191 90.38196662 -45.65444582 87.45725468 -47.4375 84.25 C-48.02144531 83.20585937 -48.02144531 83.20585937 -48.6171875 82.140625 C-55.06468196 69.24563608 -55.42986955 51.81453849 -51.46875 38.15234375 C-45.7002183 21.9174231 -35.28841654 10.94596499 -20.02734375 3.328125 C-13.23366698 0.49998806 -7.25684503 -0.06189207 0 0 Z " fill="#F9F9F9" transform="translate(1778.4375,351.75)"/>
<path d="M0 0 C1.11431396 0.00410889 2.22862793 0.00821777 3.37670898 0.01245117 C4.58391602 0.01438477 5.79112305 0.01631836 7.03491211 0.01831055 C8.30141602 0.03055664 9.56791992 0.04280273 10.87280273 0.05541992 C12.77835938 0.05638672 12.77835938 0.05638672 14.72241211 0.05737305 C24.1702022 0.10281939 24.1702022 0.10281939 25.31030273 1.24291992 C25.70057755 10.61381363 25.24527044 20.06014615 24.93530273 29.43041992 C24.89276367 30.71835449 24.85022461 32.00628906 24.80639648 33.33325195 C24.41332274 44.18925817 23.68689259 55.00236994 22.81030273 65.82885742 C21.79128355 78.63966009 21.15090117 91.39314571 20.99389648 104.24291992 C20.97324129 105.69979321 20.9522432 107.15666167 20.93092346 108.61352539 C20.87658433 112.38785814 20.826799 116.16223664 20.77807617 119.93664551 C20.71820765 124.49751617 20.65248129 129.05830599 20.58777618 133.61911011 C20.49088163 140.49366266 20.40126791 147.36827488 20.31030273 154.24291992 C10.41030273 154.24291992 0.51030273 154.24291992 -9.68969727 154.24291992 C-9.68969727 150.28291992 -9.68969727 146.32291992 -9.68969727 142.24291992 C-11.23657227 143.45979492 -12.78344727 144.67666992 -14.37719727 145.93041992 C-26.04877333 154.4352893 -38.45982482 157.13127745 -52.68969727 156.24291992 C-67.75660752 153.87765713 -79.5844006 146.41474811 -88.86547852 134.43432617 C-98.60140826 119.73661638 -101.83697496 103.41990252 -98.43969727 86.11791992 C-94.8219902 70.72591623 -86.67976356 57.5458929 -73.56469727 48.55541992 C-60.96191566 40.99375096 -46.09033098 38.77508842 -31.62133789 41.65454102 C-23.08435369 43.98669397 -14.80010084 48.82889381 -8.68969727 55.24291992 C-7.91203116 50.26099644 -7.44663676 45.326831 -7.18969727 40.28979492 C-7.12878906 39.17849213 -7.12878906 39.17849213 -7.06665039 38.04473877 C-6.93810524 35.69427829 -6.81354627 33.34363216 -6.68969727 30.99291992 C-5.7750215 13.78915499 -5.7750215 13.78915499 -5.25219727 6.75854492 C-5.19161133 5.92097656 -5.13102539 5.0834082 -5.06860352 4.22045898 C-4.43850178 0.93191258 -3.24131654 0.2927394 0 0 Z " fill="#F9F9FA" transform="translate(1062.689697265625,310.757080078125)"/>
<path d="M0 0 C1.21171875 0.00322266 2.4234375 0.00644531 3.671875 0.00976562 C4.94289063 0.01814453 6.21390625 0.02652344 7.5234375 0.03515625 C8.8021875 0.03966797 10.0809375 0.04417969 11.3984375 0.04882812 C14.56515042 0.06064422 17.73177106 0.0771181 20.8984375 0.09765625 C20.95876959 15.01466616 20.83935071 29.92015569 20.52612305 44.83398438 C20.46053327 47.99211967 20.40099599 51.15033291 20.34179688 54.30859375 C19.72987645 85.26651941 19.72987645 85.26651941 18.39273071 91.4278717 C17.84506712 94.38592124 17.73744324 97.1651239 17.69311523 100.1730957 C17.67317001 101.37396317 17.65322479 102.57483063 17.63267517 103.81208801 C17.61596268 105.09870834 17.59925018 106.38532867 17.58203125 107.7109375 C17.56144115 109.04901237 17.54044415 110.38708104 17.51905823 111.72514343 C17.46404975 115.23494419 17.41454756 118.74480157 17.36621094 122.25469971 C17.31584022 125.84107451 17.26028602 129.42736881 17.20507812 133.01367188 C17.09726903 140.04160438 16.99808136 147.06958424 16.8984375 154.09765625 C7.3284375 154.09765625 -2.2415625 154.09765625 -12.1015625 154.09765625 C-13.24971247 151.80135631 -13.40926059 150.02067539 -13.6640625 147.47265625 C-13.74785156 146.65539062 -13.83164063 145.838125 -13.91796875 144.99609375 C-13.97855469 144.36960937 -14.03914063 143.743125 -14.1015625 143.09765625 C-14.70742187 143.5565625 -15.31328125 144.01546875 -15.9375 144.48828125 C-29.302778 154.27577714 -43.11991336 157.7878744 -59.5390625 155.47265625 C-70.7739189 153.15206625 -79.15997391 147.12479157 -87.1015625 139.09765625 C-87.66488281 138.56785156 -88.22820312 138.03804687 -88.80859375 137.4921875 C-98.27975863 127.77112381 -102.07855141 113.37029557 -102.3515625 100.22265625 C-102.04766343 83.70484786 -97.39792564 67.17633595 -85.265625 55.328125 C-74.19238815 45.54703056 -62.52711133 40.48760081 -47.6640625 40.66015625 C-46.74391357 40.66772949 -45.82376465 40.67530273 -44.87573242 40.68310547 C-37.97850627 40.85036275 -32.23741255 41.78592261 -26.1015625 45.09765625 C-24.74804688 45.82082031 -24.74804688 45.82082031 -23.3671875 46.55859375 C-19.02551238 49.03058797 -15.60024678 51.5251562 -12.1015625 55.09765625 C-12.01592041 53.85266357 -11.93027832 52.6076709 -11.84204102 51.32495117 C-11.52082109 46.65999096 -11.19801535 41.99514155 -10.87475586 37.33032227 C-10.73565827 35.31993501 -10.59697796 33.30951883 -10.45874023 31.29907227 C-10.25877599 28.39201078 -10.05725935 25.48506021 -9.85546875 22.578125 C-9.7950087 21.69432663 -9.73454865 20.81052826 -9.67225647 19.89994812 C-9.55241491 18.18171606 -9.42829158 16.46377652 -9.29959106 14.7461853 C-9.15726313 12.84262325 -9.02617202 10.93820866 -8.90231323 9.03335571 C-8.82876617 8.03404022 -8.75521912 7.03472473 -8.67944336 6.00512695 C-8.61663681 5.09036087 -8.55383026 4.17559479 -8.48912048 3.23310852 C-8.36122635 2.52840927 -8.23333221 1.82371002 -8.1015625 1.09765625 C-5.33538687 -0.28543156 -3.0913825 -0.01444571 0 0 Z " fill="#F9F9FA" transform="translate(1696.1015625,310.90234375)"/>
<path d="M0 0 C5.3006135 2.3006135 5.3006135 2.3006135 7 4 C7.13616262 6.51900856 7.13058838 8.58211718 6.375 11 C5.82478547 13.93447752 6.54391263 15.42606652 8 18 C10.58492073 18.86762369 10.58492073 18.86762369 13.6875 19 C31.33558504 21.13563185 47.82897275 29.13905717 61 41 C61.69480469 41.60199219 62.38960937 42.20398438 63.10546875 42.82421875 C73.71962212 52.61716103 82.45260211 68.21484548 83.1328125 82.859375 C83.13023437 83.81328125 83.12765625 84.7671875 83.125 85.75 C83.12757813 86.71421875 83.13015625 87.6784375 83.1328125 88.671875 C83 91 83 91 82 92 C79.73672545 92.09927564 77.47028469 92.12632442 75.20483398 92.12698364 C74.48597991 92.12854363 73.76712584 92.13010362 73.0264883 92.13171089 C70.59966972 92.13572338 68.17291288 92.13253029 65.74609375 92.12939453 C64.01360029 92.13074846 62.28110712 92.13252835 60.5486145 92.13470459 C55.82974167 92.1392799 51.1108906 92.13748896 46.39201736 92.1343255 C41.46503895 92.13180241 36.53806247 92.1341393 31.61108398 92.13571167 C23.3354458 92.13753351 15.05981652 92.13512667 6.78417969 92.13037109 C-2.79804861 92.12492845 -12.38025563 92.12669109 -21.96248341 92.1321975 C-30.17391804 92.13672821 -38.38534625 92.13737938 -46.59678173 92.13475883 C-51.50797563 92.13319582 -56.41915952 92.13300293 -61.33035278 92.13629532 C-65.94642259 92.13917343 -70.56246483 92.13719946 -75.17853165 92.13140106 C-76.87774739 92.13007314 -78.57696543 92.13046812 -80.27618027 92.13266373 C-82.58576336 92.13537398 -84.8952567 92.13199567 -87.20483398 92.12698364 C-88.50049789 92.12660662 -89.7961618 92.12622959 -91.13108826 92.12584114 C-94 92 -94 92 -95 91 C-96.83737242 76.90343782 -89.78868295 63.05921989 -81.8125 51.9375 C-68.06352946 34.25379118 -46.26926698 21.43092844 -24 18 C-20.64626234 17.80506677 -17.35268147 17.7997292 -14 18 C-14 16.02 -14 14.04 -14 12 C-14.804375 11.79375 -15.60875 11.5875 -16.4375 11.375 C-17.283125 10.92125 -18.12875 10.4675 -19 10 C-19.8125 6.875 -19.8125 6.875 -20 4 C-14.33420411 -1.33251378 -7.43007446 -0.93720257 0 0 Z " fill="#FCFBFC" transform="translate(416,434)"/>
<path d="M0 0 C9.54731264 9.04721531 16.25491129 21.49011296 16.75 34.8125 C17.07016632 47.85200104 17.07016632 47.85200104 15.75 51.8125 C-12.3 51.8125 -40.35 51.8125 -69.25 51.8125 C-62.29016827 65.78684812 -62.29016827 65.78684812 -49.9375 73.25 C-39.59933163 76.53489256 -30.13489113 75.04538655 -20.25 70.8125 C-17.48294106 69.10912232 -14.92269534 67.31022129 -12.37109375 65.30078125 C-10.17884663 63.76257471 -8.89221033 63.11955924 -6.25 62.8125 C-4.65014648 63.8605957 -4.65014648 63.8605957 -3.12109375 65.48828125 C-2.56099609 66.06900391 -2.00089844 66.64972656 -1.42382812 67.24804688 C-0.85083984 67.86744141 -0.27785156 68.48683594 0.3125 69.125 C1.45752472 70.33143386 2.60458751 71.53593742 3.75390625 72.73828125 C4.50909546 73.54906128 4.50909546 73.54906128 5.27954102 74.3762207 C6.89483625 76.04236018 6.89483625 76.04236018 9.75 77.8125 C9.640625 79.5078125 9.640625 79.5078125 8.75 81.8125 C6.69588404 83.61133566 4.7346808 85.14755394 2.5 86.6875 C1.87101807 87.12586182 1.24203613 87.56422363 0.59399414 88.01586914 C-16.7311068 99.78218378 -35.38697417 103.25250639 -55.98828125 99.62890625 C-65.97659214 97.12883802 -74.64811444 92.73158147 -82.25 85.8125 C-82.88550781 85.2453125 -83.52101563 84.678125 -84.17578125 84.09375 C-93.66961119 75.14881387 -99.68345383 61.76238018 -100.69921875 48.73046875 C-100.94521237 30.35663768 -96.43463848 16.09226089 -84.0703125 2.3984375 C-61.34795965 -19.86487792 -24.0504795 -20.3141305 0 0 Z " fill="#FAFAFA" transform="translate(1956.25,366.1875)"/>
<path d="M0 0 C10.25055236 8.14205266 17.32919722 20.20327959 20 33 C20.33584083 36.70180717 20.3338646 40.3488706 20.25 44.0625 C20.24484375 45.01060547 20.2396875 45.95871094 20.234375 46.93554688 C20.15512826 53.84487174 20.15512826 53.84487174 19 55 C16.35261911 55.09511266 13.73140999 55.12555635 11.08374023 55.11352539 C10.25454071 55.11367142 9.42534119 55.11381744 8.5710144 55.1139679 C5.81684802 55.11326851 3.06274839 55.10547493 0.30859375 55.09765625 C-1.59569766 55.09579216 -3.49998955 55.09436822 -5.40428162 55.09336853 C-10.42667963 55.08954263 -15.44904892 55.07971173 -20.47143555 55.06866455 C-25.5922812 55.05845198 -30.71313148 55.05387124 -35.83398438 55.04882812 C-45.88933557 55.03808953 -55.9446654 55.02101224 -66 55 C-65.08709353 56.92095456 -64.16303267 58.83661045 -63.234375 60.75 C-62.46432129 62.35101563 -62.46432129 62.35101563 -61.67871094 63.984375 C-57.92810345 70.72194099 -52.02351378 74.78802737 -44.83203125 77.33984375 C-33.51667126 79.97749318 -23.43392561 77.7433749 -13.5625 72 C-11.175756 70.13717542 -9.05883791 68.21721005 -7 66 C-3.36410113 67.59124045 -0.59933476 69.8393904 2.4375 72.375 C5.93378052 75.28289395 9.44008313 78.17015683 13 81 C12.31602547 86.05692646 8.91983315 87.96784389 5.0625 90.91015625 C-12.09228046 102.61654343 -30.93027354 106.34700488 -51.25 102.875 C-65.20366736 100.13660333 -78.94511481 91.95611163 -87 80 C-93.31220274 69.06608616 -96.52630005 59.12514837 -96.375 46.5 C-96.38660156 45.53191406 -96.39820313 44.56382812 -96.41015625 43.56640625 C-96.35180791 29.07656958 -90.46334293 15.94053934 -80.3125 5.625 C-58.48555984 -15.4815453 -24.61825629 -17.35725373 0 0 Z " fill="#FAFAFA" transform="translate(1192,363)"/>
<path d="M0 0 C1.54921574 1.04234146 3.07122316 2.12632811 4.5625 3.25 C5.73039063 4.12978516 5.73039063 4.12978516 6.921875 5.02734375 C17.1581957 13.42593574 23.40256297 25.22924752 25.5625 38.25 C26.82120178 53.57227363 21.62233745 67.1878635 11.859375 78.859375 C5.2416466 85.74721476 -2.38487789 90.34459763 -11.4375 93.25 C-12.654375 93.6625 -13.87125 94.075 -15.125 94.5 C-28.25757769 97.41246683 -41.25911949 94.99684705 -52.8125 88.375 C-65.61374873 80.06142651 -73.13142089 69.28122707 -76.4375 54.25 C-77.31169378 43.34850213 -77.71071629 32.09005159 -72.4375 22.25 C-71.80134766 20.98349609 -71.80134766 20.98349609 -71.15234375 19.69140625 C-64.45919401 7.44238292 -54.21430143 -0.60438687 -41.125 -5.125 C-27.56989784 -8.89382513 -12.3007413 -6.99079397 0 0 Z " fill="#030202" transform="translate(819.4375,343.75)"/>
<path d="M0 0 C1.05960938 -0.01675781 2.11921875 -0.03351563 3.2109375 -0.05078125 C7.44526769 0.39978249 10.69458515 1.68981239 14.625 3.3125 C14.4854947 6.70862414 14.33727678 10.10431458 14.1875 13.5 C14.14818359 14.45970703 14.10886719 15.41941406 14.06835938 16.40820312 C14.02646484 17.33955078 13.98457031 18.27089844 13.94140625 19.23046875 C13.90474854 20.08406982 13.86809082 20.9376709 13.83032227 21.81713867 C13.61968906 24.37704594 13.17658464 26.80583243 12.625 29.3125 C11.738125 29.1475 10.85125 28.9825 9.9375 28.8125 C-1.17772851 27.35586723 -9.92848872 27.674411 -19.375 34.3125 C-25.42158031 39.9049893 -27.93284598 47.44420869 -28.66558838 55.51199341 C-28.79874324 59.13676825 -28.84218109 62.75171273 -28.8515625 66.37890625 C-28.87535902 68.38783594 -28.89915984 70.39676559 -28.9232235 72.4056921 C-28.95299183 75.18861272 -28.96958586 77.97155256 -28.98626709 80.75457764 C-29.01806175 85.66381436 -29.06879288 90.57288062 -29.12265015 95.48191833 C-29.14993307 98.0904737 -29.17125967 100.69909919 -29.18618774 103.30775452 C-29.20158096 105.06109352 -29.20158096 105.06109352 -29.21728516 106.84985352 C-29.22378082 107.88336441 -29.23027649 108.91687531 -29.23696899 109.98170471 C-29.375 112.3125 -29.375 112.3125 -30.375 113.3125 C-32.52058827 113.40025605 -34.66904421 113.41945219 -36.81640625 113.41015625 C-38.12158203 113.40693359 -39.42675781 113.40371094 -40.77148438 113.40039062 C-42.1601569 113.39203401 -43.54882877 113.38356905 -44.9375 113.375 C-46.33007656 113.36998666 -47.72265481 113.36542347 -49.11523438 113.36132812 C-52.5351987 113.34949434 -55.95507844 113.3330088 -59.375 113.3125 C-59.3983302 98.98755574 -59.41591336 84.66261441 -59.42681217 70.33765507 C-59.43204174 63.6867647 -59.43914072 57.03589214 -59.45043945 50.38500977 C-59.46126571 43.97247123 -59.46727628 37.55994496 -59.46987724 31.14739799 C-59.47173197 28.69485722 -59.47535347 26.24231715 -59.48073006 23.78978157 C-59.48793702 20.36773323 -59.48899109 16.94573629 -59.48852539 13.52368164 C-59.49212067 12.49869568 -59.49571594 11.47370972 -59.49942017 10.41766357 C-59.4980455 9.49073196 -59.49667084 8.56380035 -59.49525452 7.60877991 C-59.49617631 6.79852387 -59.4970981 5.98826784 -59.49804783 5.1534586 C-59.375 3.3125 -59.375 3.3125 -58.375 2.3125 C-56.22941173 2.22474395 -54.08095579 2.20554781 -51.93359375 2.21484375 C-50.62841797 2.21806641 -49.32324219 2.22128906 -47.97851562 2.22460938 C-46.5898431 2.23296599 -45.20117123 2.24143095 -43.8125 2.25 C-42.41992344 2.25501334 -41.02734519 2.25957653 -39.63476562 2.26367188 C-36.2148013 2.27550566 -32.79492156 2.2919912 -29.375 2.3125 C-29.045 6.2725 -28.715 10.2325 -28.375 14.3125 C-27.405625 13.260625 -26.43625 12.20875 -25.4375 11.125 C-18.51089691 4.19839691 -9.86446377 0.03582735 0 0 Z " fill="#F9F9F9" transform="translate(1522.375,351.6875)"/>
<path d="M0 0 C1.10988281 -0.02578125 2.21976563 -0.0515625 3.36328125 -0.078125 C7.07182757 0.28793598 9.47860107 1.40524721 12.6875 3.25 C12.7418251 6.27107902 12.78132927 9.29116528 12.8125 12.3125 C12.82925781 13.16005859 12.84601563 14.00761719 12.86328125 14.88085938 C12.90346135 20.08418201 12.38495815 24.32469821 10.6875 29.25 C9.49253906 29.14300781 8.29757812 29.03601563 7.06640625 28.92578125 C-3.67284076 28.06790573 -11.8274823 27.43474001 -20.625 34.4375 C-28.89711445 42.31492111 -30.2660023 52.60848191 -30.63134766 63.6394043 C-30.67234265 65.95086348 -30.70370339 68.26250908 -30.7265625 70.57421875 C-30.74592865 71.80163284 -30.7652948 73.02904694 -30.7852478 74.2936554 C-30.84454169 78.17486849 -30.89122701 82.05611206 -30.9375 85.9375 C-30.975726 88.58529867 -31.01478035 91.23308551 -31.0546875 93.88085938 C-31.15174454 100.33717452 -31.23171252 106.79337926 -31.3125 113.25 C-40.8825 113.25 -50.4525 113.25 -60.3125 113.25 C-60.3125 76.95 -60.3125 40.65 -60.3125 3.25 C-57.54632437 1.86691219 -55.30232 2.13789804 -52.2109375 2.15234375 C-50.99921875 2.15556641 -49.7875 2.15878906 -48.5390625 2.16210938 C-47.26804687 2.17048828 -45.99703125 2.17886719 -44.6875 2.1875 C-43.40875 2.19201172 -42.13 2.19652344 -40.8125 2.20117188 C-37.64581355 2.21298787 -34.47915104 2.23092379 -31.3125 2.25 C-31.3125 6.87 -31.3125 11.49 -31.3125 16.25 C-30.6525 16.25 -29.9925 16.25 -29.3125 16.25 C-29.0546875 15.6621875 -28.796875 15.074375 -28.53125 14.46875 C-24.4916372 7.1145831 -16.93417006 3.76799401 -9.3125 1.25 C-6.02572591 0.15440864 -3.45893798 0.04787457 0 0 Z " fill="#F9F9F9" transform="translate(950.3125,351.75)"/>
<path d="M0 0 C0.86625 0.495 1.7325 0.99 2.625 1.5 C3.00564163 10.29705092 1.83231692 18.81163005 0.625 27.5 C-0.41011719 27.34144531 -1.44523437 27.18289063 -2.51171875 27.01953125 C-11.86021614 25.76235213 -19.98833628 25.75836876 -28.375 30.5 C-31.29290525 32.7504197 -31.29290525 32.7504197 -33.375 35.5 C-34.426875 36.799375 -34.426875 36.799375 -35.5 38.125 C-40.46160778 47.05589401 -40.83483763 56.46316048 -40.88671875 66.48046875 C-40.90466995 67.77447098 -40.92262115 69.06847321 -40.94111633 70.40168762 C-40.98814165 73.8028977 -41.01825495 77.20404374 -41.04455566 80.60546875 C-41.07460427 84.0919247 -41.12089403 87.57816504 -41.16601562 91.06445312 C-41.25301001 97.87631562 -41.3133596 104.68767316 -41.375 111.5 C-50.945 111.5 -60.515 111.5 -70.375 111.5 C-70.42011303 97.32270891 -70.45683653 83.14546518 -70.47862434 68.96811867 C-70.48907927 62.38561978 -70.50326959 55.80317238 -70.52587891 49.22070312 C-70.54754641 42.87299465 -70.55955573 36.52533582 -70.56475449 30.17759323 C-70.56846122 27.75099277 -70.57569911 25.32439514 -70.58646011 22.8978157 C-70.60089404 19.50945326 -70.60298134 16.1212982 -70.60205078 12.73291016 C-70.60924133 11.72087021 -70.61643188 10.70883026 -70.62384033 9.66612244 C-70.621091 8.74623032 -70.61834167 7.8263382 -70.61550903 6.87857056 C-70.61735262 6.07661066 -70.61919621 5.27465076 -70.62109566 4.44838905 C-70.375 2.5 -70.375 2.5 -68.375 0.5 C-65.66943359 0.27294922 -65.66943359 0.27294922 -62.2734375 0.3046875 C-60.45585938 0.31435547 -60.45585938 0.31435547 -58.6015625 0.32421875 C-57.33054687 0.34097656 -56.05953125 0.35773438 -54.75 0.375 C-53.47125 0.38402344 -52.1925 0.39304687 -50.875 0.40234375 C-47.70825421 0.42597618 -44.54160415 0.46184814 -41.375 0.5 C-41.045 4.79 -40.715 9.08 -40.375 13.5 C-39.59125 12.46875 -38.8075 11.4375 -38 10.375 C-29.12880849 0.01126205 -13.01372165 -5.61532775 0 0 Z " fill="#FAFAFA" transform="translate(1295.375,353.5)"/>
<path d="M0 0 C0 33 0 66 0 100 C-2.31 98.02 -4.62 96.04 -7 94 C-36.47000638 70.52066251 -70.19643976 57.39826803 -106 47 C-106 46.67 -106 46.34 -106 46 C-105.23671387 45.88519287 -104.47342773 45.77038574 -103.68701172 45.65209961 C-67.63380476 40.12062647 -30.61546763 29.05216903 -4.25390625 2.203125 C-2 0 -2 0 0 0 Z " fill="#050404" transform="translate(596,270)"/>
<path d="M0 0 C1.31065511 -0.0083016 1.31065511 -0.0083016 2.64778811 -0.0167709 C5.58136208 -0.03040529 8.51408936 -0.015393 11.44764709 -0.00050354 C13.54847577 -0.00428573 15.64930196 -0.00978493 17.75012207 -0.01687622 C23.46088822 -0.03086198 29.17135414 -0.01963866 34.88210368 -0.00316501 C40.85354406 0.01066526 46.82496664 0.00422765 52.79641724 0.0007019 C62.82636871 -0.00200203 72.85620063 0.01149045 82.88612366 0.03465271 C94.48662397 0.06125629 106.08692427 0.06301249 117.68744463 0.05126435 C128.83924861 0.04048908 139.99098016 0.04667216 151.1427784 0.06081963 C155.89188407 0.06658232 160.64093679 0.06649448 165.39004326 0.06175423 C170.98214457 0.05698575 176.5740266 0.06708096 182.1660862 0.08870888 C184.21999243 0.09427892 186.27391972 0.09474006 188.32782745 0.08975601 C191.12870802 0.08381119 193.92891637 0.09629312 196.72973633 0.11352539 C197.54510658 0.10751535 198.36047683 0.1015053 199.20055526 0.09531313 C203.76825151 0.14651421 206.82580605 0.60149466 210.42835999 3.50120544 C211.49085999 5.93870544 211.49085999 5.93870544 211.42835999 8.50120544 C207.2680793 13.89416189 202.27232347 14.8351563 195.86585999 15.84104919 C193.37615431 16.31955774 193.37615431 16.31955774 191.73413372 18.01781464 C188.579914 20.0470426 185.72921039 19.92363508 182.09848022 19.89561462 C180.98806902 19.90475128 180.98806902 19.90475128 179.85522527 19.91407251 C177.37334428 19.93072838 174.8919749 19.92592307 172.41004944 19.92112732 C170.63097601 19.92846639 168.85190736 19.93705215 167.07284546 19.9467926 C162.23787944 19.96904021 157.40308369 19.97193747 152.56807351 19.97004509 C148.53004732 19.96992548 144.49205732 19.97848618 140.45404118 19.98682261 C130.92340226 20.00607029 121.39285091 20.00893635 111.86219788 20.00218201 C102.03850681 19.99554775 92.21519186 20.01837768 82.39157706 20.05549574 C73.95318703 20.08622001 65.51491777 20.09754957 57.07647294 20.09365892 C52.03864264 20.09159336 47.00110465 20.09704015 41.96332741 20.12155151 C37.22142231 20.14385964 32.4801265 20.14190702 27.73821831 20.12162399 C26.00204111 20.11822056 24.2658226 20.12327426 22.52970123 20.13760757 C13.36124516 20.20805071 6.11755154 20.09154612 -1.57164001 14.50120544 C-4.22059922 13.42752742 -4.22059922 13.42752742 -6.50914001 12.81370544 C-9.37936906 11.98857787 -10.40661408 11.66623138 -12.57164001 9.50120544 C-13.06634465 6.36807606 -12.91238983 4.98969433 -11.08393002 2.36846828 C-7.53274428 -0.27095517 -4.25380334 -0.0499728 0 0 Z " fill="#F8F8F9" transform="translate(311.57164001464844,533.4987945556641)"/>
<path d="M0 0 C1.31419922 -0.01224609 2.62839844 -0.02449219 3.98242188 -0.03710938 C5.23474609 -0.03904297 6.48707031 -0.04097656 7.77734375 -0.04296875 C8.93355225 -0.04707764 10.08976074 -0.05118652 11.28100586 -0.05541992 C14.0625 0.1875 14.0625 0.1875 16.0625 2.1875 C16.31138897 4.11747837 16.31138897 4.11747837 16.30973816 6.52137756 C16.31393265 7.43141037 16.31812714 8.34144318 16.32244873 9.27905273 C16.31401947 10.78072998 16.31401947 10.78072998 16.30541992 12.31274414 C16.30731827 13.36481552 16.30921661 14.4168869 16.31117249 15.50083923 C16.31488864 18.9915198 16.30416474 22.48199406 16.29296875 25.97265625 C16.2917774 28.38878861 16.29132369 30.80492144 16.2915802 33.22105408 C16.29001392 38.28940726 16.2817127 43.35768994 16.26831055 48.42602539 C16.25131146 54.9389158 16.24749637 61.45172871 16.24825573 67.96463871 C16.24798446 72.95471442 16.24251043 77.94477302 16.23525429 82.93484306 C16.23206115 85.33714099 16.23009872 87.73944086 16.22936058 90.1417408 C16.22720434 93.49174463 16.21847594 96.84166446 16.20776367 100.19165039 C16.20844345 101.69636398 16.20844345 101.69636398 16.20913696 103.23147583 C16.20487198 104.13868881 16.20060699 105.04590179 16.19621277 105.98060608 C16.19453692 106.77351579 16.19286108 107.5664255 16.19113445 108.38336277 C16.0625 110.1875 16.0625 110.1875 15.0625 111.1875 C12.84394736 111.27533542 10.62261504 111.29444609 8.40234375 111.28515625 C7.40564415 111.28303383 7.40564415 111.28303383 6.3888092 111.28086853 C4.25916101 111.27525518 2.12961661 111.26270054 0 111.25 C-1.44075369 111.24498671 -2.88150903 111.24042351 -4.32226562 111.23632812 C-7.86071102 111.22528145 -11.39909539 111.20800792 -14.9375 111.1875 C-14.9608302 96.86255574 -14.97841336 82.53761441 -14.98931217 68.21265507 C-14.99454174 61.5617647 -15.00164072 54.91089214 -15.01293945 48.26000977 C-15.02376571 41.84747123 -15.02977628 35.43494496 -15.03237724 29.02239799 C-15.03423197 26.56985722 -15.03785347 24.11731715 -15.04323006 21.66478157 C-15.05043702 18.24273323 -15.05149109 14.82073629 -15.05102539 11.39868164 C-15.05462067 10.37369568 -15.05821594 9.34870972 -15.06192017 8.29266357 C-15.0605455 7.36573196 -15.05917084 6.43880035 -15.05775452 5.48377991 C-15.05867631 4.67352387 -15.0595981 3.86326784 -15.06054783 3.0284586 C-14.70209805 -2.33442509 -3.9513395 0.0019322 0 0 Z " fill="#F5F5F5" transform="translate(1567.9375,353.8125)"/>
<path d="M0 0 C6.21133404 5.03794034 10.24171374 12.56775421 11.6875 20.375 C12.40367168 29.11229454 10.32522669 37.51830537 4.6875 44.375 C-1.73552073 51.01698734 -8.38417226 55.49690744 -17.8125 55.8125 C-28.50174464 55.35034298 -35.68280086 51.00469914 -43.125 43.5625 C-48.70346143 35.43388477 -49.15927451 27.06713527 -48.3125 17.375 C-46.45372799 8.87583234 -41.29335842 2.32160408 -34.3125 -2.625 C-22.72555871 -8.99905299 -10.75233347 -7.25061567 0 0 Z " fill="#040404" transform="translate(1042.3125,384.625)"/>
<path d="M0 0 C7.21303094 5.21299553 11.78632199 10.85740721 13.6796875 19.7734375 C15.13199596 29.86875244 13.65411638 38.44740512 7.5 46.75 C1.75028285 52.97148882 -7.27608783 56.67421295 -15.625 57.25 C-23.75885993 57.08400286 -30.69645575 54.41889214 -36.953125 49.23828125 C-42.88645114 42.75012117 -46.29977187 34.18263761 -46.14453125 25.4609375 C-45.56998751 15.67816579 -41.83989012 8.31156865 -34.625 1.625 C-24.82440739 -6.0283912 -10.50806677 -6.8838973 0 0 Z " fill="#040404" transform="translate(1670,383)"/>
<path d="M0 0 C5.06257893 3.9958817 8.39186458 9.73883323 10.3359375 15.84375 C11.19598825 26.44359625 11.0170822 35.42674107 4.2734375 44.03125 C-1.17072469 49.91557849 -8.62946534 53.49745496 -16.6171875 54.046875 C-27.29826673 54.19873869 -33.74895704 52.73744896 -41.609375 45.2578125 C-48.04942132 37.69137024 -49.49486624 29.12652792 -49.15625 19.40625 C-48.42977545 14.147958 -46.59558498 10.21979081 -43.6640625 5.84375 C-43.0659375 4.915625 -42.4678125 3.9875 -41.8515625 3.03125 C-29.87437581 -8.94593669 -13.73872186 -8.62369003 0 0 Z " fill="#040404" transform="translate(1803.6640625,384.15625)"/>
<path d="M0 0 C7.5079464 -0.09212204 15.01391019 -0.17167804 22.52197266 -0.21972656 C25.07282173 -0.23976872 27.62362527 -0.26700993 30.17431641 -0.30175781 C33.8533048 -0.3506003 37.53168259 -0.37304381 41.2109375 -0.390625 C42.34050873 -0.41127014 43.47007996 -0.43191528 44.63388062 -0.45318604 C52.16389969 -0.4552918 59.69995745 0.31779566 65.64926147 5.41229248 C70.02779739 10.35638475 71.53396363 15.17834447 71.3828125 21.65625 C70.52920433 26.88242244 67.35207632 30.610366 63.75 34.3125 C56.08739506 39.01455303 48.56007095 39.41806154 39.74609375 39.29296875 C38.60463394 39.28872391 37.46317413 39.28447906 36.28712463 39.28010559 C32.6703349 39.26342151 29.05411902 39.22578766 25.4375 39.1875 C22.97331538 39.17243992 20.50912197 39.15875384 18.04492188 39.14648438 C12.02955331 39.11611395 6.01541287 39.05737059 0 39 C0 26.13 0 13.26 0 0 Z " fill="#030302" transform="translate(1344,399)"/>
<path d="M0 0 C6.67184298 -0.09213132 13.34145406 -0.17168182 20.01342773 -0.21972656 C22.28010563 -0.23976707 24.54673232 -0.26700711 26.81323242 -0.30175781 C30.08264856 -0.35060868 33.35137757 -0.37304512 36.62109375 -0.390625 C37.62458359 -0.41127014 38.62807343 -0.43191528 39.66197205 -0.45318604 C47.89335175 -0.4557757 54.45137535 1.36419964 60.5625 7.0625 C63.58741104 10.96127423 63.68520971 14.60981512 63.3828125 19.421875 C62.47855554 25.51176879 59.54878114 28.77107956 55.109375 32.703125 C48.92020552 36.50831809 42.28116054 36.27009032 35.25390625 36.1953125 C33.7372361 36.19106766 33.7372361 36.19106766 32.18992615 36.18673706 C28.98066048 36.17559889 25.77168042 36.15050597 22.5625 36.125 C20.37825926 36.11496198 18.19401411 36.10583757 16.00976562 36.09765625 C10.67298022 36.07738741 5.33680743 36.03822624 0 36 C0 24.12 0 12.24 0 0 Z " fill="#030303" transform="translate(1344,338)"/>
<path d="M0 0 C3.43219394 1.90453115 5.58914599 3.98810922 7.75 7.3125 C8.1625 7.93125 8.575 8.55 9 9.1875 C10.65083158 13.86485613 10.14747315 17.97919198 8.1875 22.4375 C5.81907366 26.63533151 3.3369177 29.5904219 -1.25 31.3125 C-7.1697912 32.14658529 -12.33079292 32.18792779 -17.8125 29.6875 C-22.24717998 25.36652977 -25.02870416 21.2446699 -25.5 15 C-25.10211381 9.13117864 -23.06823636 5.83437478 -18.75 2 C-13.12253092 -2.70189851 -6.53642679 -3.0299698 0 0 Z " fill="#F5F5F6" transform="translate(1576.25,310.6875)"/>
<path d="M0 0 C0.18952073 3.12709209 -0.10056616 5.33941078 -1 8.375 C-3.44548006 17.2398652 -0.66303245 23.45801356 3.15625 31.40625 C6.23598645 38.18167018 7.25515144 44.60121254 6 52 C3.72949769 56.8276461 0.09197546 61.13708215 -5 63 C-8.8125 62.6875 -8.8125 62.6875 -12 62 C-11.50404054 59.76818244 -10.94061493 57.87773662 -9.9375 55.8125 C-7.12731554 47.38194661 -9.6995292 41.64441224 -13.42163086 34.14111328 C-13.73495361 33.51962402 -14.04827637 32.89813477 -14.37109375 32.2578125 C-17.57803162 25.84393676 -18.13986315 18.90051402 -16.50390625 11.8671875 C-14.55377251 6.95329119 -11.28987301 2.64584622 -7 -0.4375 C-4.39571224 -1.16995593 -2.57583827 -0.71551063 0 0 Z " fill="#F4F4F4" transform="translate(418,355)"/>
<path d="M0 0 C6.06093738 3.23097229 12.28387961 8.01194035 15.0625 14.4375 C15.0625 15.7575 15.0625 17.0775 15.0625 18.4375 C-3.0875 18.4375 -21.2375 18.4375 -39.9375 18.4375 C-38.60509534 11.77547668 -35.97442615 7.62559586 -30.421875 3.625 C-21.29700513 -1.92462846 -10.2876568 -4.21595743 0 0 Z " fill="#090909" transform="translate(1927.9375,378.5625)"/>
<path d="M0 0 C6.60448735 3.53321346 12.44961951 8.25207866 15.0625 15.4375 C15.0625 16.4275 15.0625 17.4175 15.0625 18.4375 C-3.0875 18.4375 -21.2375 18.4375 -39.9375 18.4375 C-38.60509534 11.77547668 -35.97442615 7.62559586 -30.421875 3.625 C-21.29700513 -1.92462846 -10.2876568 -4.21595743 0 0 Z " fill="#090908" transform="translate(1166.9375,378.5625)"/>
<path d="M0 0 C-0.165 0.763125 -0.33 1.52625 -0.5 2.3125 C-1.5716519 10.21593274 -1.92836525 15.880524 2 23.0625 C4.95386448 28.49901724 6.54957595 32.85334872 5 39 C2.75828812 43.47579888 0.03722414 46.31543207 -4.125 49.0625 C-7.0268253 50.00874738 -8.22863395 50.17250102 -11 49 C-10.125 44.25 -10.125 44.25 -9 42 C-8.25666803 36.26572481 -9.21903808 33.20270929 -12 28.125 C-14.94003176 22.580142 -16.39478964 18.22936126 -15 12 C-12.23141894 5.24793312 -7.68019807 0 0 0 Z " fill="#F3F3F3" transform="translate(449,371)"/>
<path d="M0 0 C0.70125 0.268125 1.4025 0.53625 2.125 0.8125 C1.96 1.3075 1.795 1.8025 1.625 2.3125 C0.12022182 9.8363909 1.41048483 14.30385365 5.125 20.75 C8.31685152 26.71299659 10.45878467 30.9212792 9.125 37.8125 C6.8967012 42.18656801 4.22152843 45.11478616 0.125 47.8125 C-2.6875 48.5625 -2.6875 48.5625 -4.875 48.8125 C-5.80923645 45.80218256 -5.91949911 44.94599732 -4.875 41.8125 C-4.23866822 34.30378501 -6.18453695 29.46384272 -10.625 23.4375 C-13.07228716 18.29819695 -12.5463513 12.78925662 -10.75 7.5 C-7.9833758 3.53450532 -5.23935994 -0.34169739 0 0 Z " fill="#F3F3F3" transform="translate(380.875,371.1875)"/>
<path d="M0 0 C0.33 0.66 0.66 1.32 1 2 C2.65 2 4.3 2 6 2 C6 2.99 6 3.98 6 5 C4.02 5.33 2.04 5.66 0 6 C-1.125 2.25 -1.125 2.25 0 0 Z " fill="#D3D3D4" transform="translate(439,415)"/>
<path d="M0 0 C1.32 0 2.64 0 4 0 C6 3 6 3 5.625 5.1875 C5.41875 5.785625 5.2125 6.38375 5 7 C3.02 5.35 1.04 3.7 -1 2 C-0.67 1.34 -0.34 0.68 0 0 Z " fill="#151414" transform="translate(1049,360)"/>
<path d="M0 0 C0.33 0 0.66 0 1 0 C1 2.64 1 5.28 1 8 C1.99 8.33 2.98 8.66 4 9 C2.68 10.32 1.36 11.64 0 13 C0 8.71 0 4.42 0 0 Z " fill="#1B1B1A" transform="translate(1493,355)"/>
</svg>
